<?xml version="1.0" encoding="iso-8859-1"?>
<!-- Uploaded to: SVG Repo, www.svgrepo.com, Generator: SVG Repo Mixer Tools -->
<svg version="1.1" id="Layer_1" xmlns="http://www.w3.org/2000/svg" xmlns:xlink="http://www.w3.org/1999/xlink" 
	 viewBox="0 0 512.001 512.001" xml:space="preserve">
<path style="fill:#F48911;" d="M136.882,7.837H79.995c-10.366,0-18.77,8.333-18.77,18.613v459.102
	c0,10.279,8.403,18.613,18.77,18.613h56.887V7.837z"/>
<path style="fill:#FFAB5F;" d="M450.776,485.552c0,10.279-8.404,18.613-18.77,18.613H119.178c-10.366,0-18.77-8.333-18.77-18.613
	V26.45c0-10.279,8.403-18.613,18.77-18.613h312.828c10.365,0,18.77,8.333,18.77,18.613V485.552z"/>
<path style="opacity:0.1;enable-background:new    ;" d="M144.196,485.552V26.45c0-10.279,8.403-18.613,18.77-18.613h-43.787
	c-10.366,0-18.77,8.333-18.77,18.613v459.102c0,10.279,8.403,18.613,18.77,18.613h43.787
	C152.6,504.163,144.196,495.83,144.196,485.552z"/>
<rect x="100.405" y="181.833" style="fill:#E0D9AF;" width="350.365" height="148.323"/>
<path style="fill:#FFE060;" d="M194.824,460.735c-9.943,0-18.161-7.689-18.738-17.533c-0.402-6.867-6.161-12.246-13.11-12.246
	c-10.366,0-18.77-8.333-18.77-18.613V99.657c0-10.279,8.403-18.612,18.77-18.612c6.95,0,12.709-5.379,13.11-12.246
	c0.577-9.843,8.795-17.533,18.738-17.533h161.538c9.945,0,18.163,7.69,18.739,17.534c0.401,6.866,6.161,12.245,13.11,12.245
	c10.365,0,18.77,8.333,18.77,18.612v312.686c0,10.279-8.404,18.613-18.77,18.613c-6.949,0-12.709,5.379-13.11,12.245
	c-0.576,9.844-8.794,17.534-18.739,17.534H194.824z"/>
<path style="opacity:0.1;enable-background:new    ;" d="M209.058,443.202c-0.402-6.867-6.161-12.246-13.11-12.246
	c-10.366,0-18.77-8.333-18.77-18.613V99.657c0-10.279,8.403-18.612,18.77-18.612c6.95,0,12.709-5.379,13.11-12.246
	c0.577-9.843,8.795-17.533,18.738-17.533h-32.974c-9.943,0-18.161,7.689-18.738,17.533c-0.402,6.867-6.161,12.246-13.11,12.246
	c-10.366,0-18.77,8.333-18.77,18.612v312.686c0,10.279,8.403,18.613,18.77,18.613c6.95,0,12.709,5.379,13.11,12.246
	c0.577,9.843,8.795,17.533,18.738,17.533h32.974C217.853,460.735,209.635,453.045,209.058,443.202z"/>
<path style="fill:#E0D9AF;" d="M215.585,424.229c0-33.141,26.866-60.006,60.007-60.006c33.14,0,60.007,26.865,60.007,60.006H215.585
	z"/>
<path style="opacity:0.1;enable-background:new    ;" d="M286.47,365.224c-3.53-0.647-7.162-1.002-10.877-1.002
	c-33.141,0-60.007,26.865-60.007,60.006h21.756C237.342,394.804,258.526,370.344,286.47,365.224z"/>
<ellipse style="fill:#FFFFFF;" cx="275.592" cy="151.312" rx="61.001" ry="40.95"/>
<path style="opacity:0.1;enable-background:new    ;" d="M236.147,151.315c0-20.125,21.636-36.847,50.139-40.287
	c-3.475-0.417-7.041-0.659-10.694-0.659c-33.688,0-60.998,18.333-60.998,40.947s27.31,40.945,60.998,40.945
	c3.654,0,7.219-0.242,10.694-0.659C257.783,188.161,236.147,171.44,236.147,151.315z"/>
<g>
	<path style="fill:#736357;" d="M334.636,235.624H216.548c-4.328,0-7.837-3.509-7.837-7.837c0-4.328,3.509-7.837,7.837-7.837
		h118.088c4.329,0,7.837,3.509,7.837,7.837C342.473,232.116,338.964,235.624,334.636,235.624z"/>
	<path style="fill:#736357;" d="M308.694,269.126h-66.202c-4.328,0-7.837-3.509-7.837-7.837s3.509-7.837,7.837-7.837h66.202
		c4.329,0,7.837,3.509,7.837,7.837C316.53,265.617,313.022,269.126,308.694,269.126z"/>
</g>
<path d="M450.776,66.351c4.329,0,7.837-3.509,7.837-7.837V26.45c0-14.585-11.936-26.45-26.606-26.45H79.995
	c-14.67,0-26.606,11.865-26.606,26.45v459.102c0,14.584,11.936,26.449,26.606,26.449h352.011c14.67,0,26.606-11.865,26.606-26.449
	V95.086c0-4.328-3.508-7.837-7.837-7.837c-4.329,0-7.837,3.509-7.837,7.837V174h-28.122V99.657
	c0-14.584-11.936-26.448-26.606-26.448c-2.806,0-5.127-2.137-5.287-4.865c-0.816-13.971-12.484-24.915-26.562-24.915H194.824
	c-14.076,0-25.743,10.942-26.561,24.911c-0.16,2.729-2.483,4.868-5.287,4.868c-14.67,0-26.606,11.865-26.606,26.448V174h-28.122
	V26.45c0-5.942,4.905-10.776,10.933-10.776h312.828c6.029,0,10.933,4.834,10.933,10.776v32.065
	C442.939,62.842,446.448,66.351,450.776,66.351z M414.817,189.673h28.122v132.654h-28.122V189.673z M152.042,99.657
	c0-5.941,4.905-10.775,10.933-10.775c11.095,0,20.29-8.62,20.935-19.625c0.333-5.694,5.128-10.154,10.915-10.154h161.538
	c5.788,0,10.583,4.461,10.915,10.154c0.643,11.005,9.838,19.625,20.934,19.625c6.029,0,10.933,4.834,10.933,10.775v312.686
	c0,5.941-4.904,10.776-10.933,10.776c-11.096,0-20.291,8.62-20.934,19.624c-0.332,5.695-5.127,10.155-10.915,10.155H194.824
	c-5.787,0-10.582-4.461-10.915-10.154c-0.645-11.005-9.84-19.625-20.935-19.625c-6.028,0-10.933-4.834-10.933-10.776V99.657z
	 M162.974,438.792c2.806,0,5.127,2.138,5.287,4.868c0.818,13.969,12.485,24.911,26.561,24.911h161.538
	c14.078,0,25.746-10.943,26.562-24.915c0.159-2.728,2.482-4.865,5.287-4.865c14.67,0,26.606-11.865,26.606-26.449V338h28.122v147.55
	c0,5.941-4.904,10.776-10.933,10.776H119.178c-6.029,0-10.933-4.834-10.933-10.776v-42.514c0-4.328-3.509-7.837-7.837-7.837
	s-7.837,3.509-7.837,7.837v42.515c0,3.837,0.833,7.481,2.318,10.776H79.995c-6.029,0-10.933-4.834-10.933-10.776V26.45
	c0-5.942,4.905-10.776,10.933-10.776h14.894c-1.485,3.294-2.318,6.939-2.318,10.776v380.016c0,4.328,3.509,7.837,7.837,7.837
	s7.837-3.509,7.837-7.837V338h28.122v74.342C136.368,426.926,148.304,438.792,162.974,438.792z M136.368,189.673v132.654h-28.122
	V189.673H136.368z"/>
<path d="M228.092,186.774c12.799,8.592,29.668,13.324,47.5,13.324c17.831,0,34.7-4.731,47.499-13.322
	c13.758-9.236,21.336-21.829,21.336-35.461s-7.578-26.225-21.336-35.461c-12.799-8.591-29.668-13.323-47.499-13.323
	c-17.831,0-34.701,4.731-47.5,13.323c-13.757,9.235-21.335,21.829-21.335,35.461S214.335,177.54,228.092,186.774z M275.592,118.204
	c28.816,0,53.161,15.163,53.161,33.111s-24.345,33.11-53.161,33.11s-53.161-15.163-53.161-33.11S246.776,118.204,275.592,118.204z"
	/>
<path d="M201.594,432.065h147.998c4.329,0,7.837-3.509,7.837-7.837s-3.508-7.837-7.837-7.837h-6.622
	c-3.602-31.156-28.385-55.938-59.54-59.539v-3.566c0-4.328-3.508-7.837-7.837-7.837s-7.837,3.509-7.837,7.837v3.566
	c-31.156,3.602-55.939,28.384-59.54,59.539h-6.622c-4.328,0-7.837,3.509-7.837,7.837S197.266,432.065,201.594,432.065z
	 M275.592,372.059c26.104,0,47.788,19.271,51.58,44.333H224.011C227.804,391.33,249.489,372.059,275.592,372.059z"/>
</svg>